# xmcd
#
# Track frame offsets: 
#        150
#        12137
#        23572
#        40610
#        51750
#        65080
#        78900
#        95737
#        106050
#        119940
#        131055
#        144110
#
# Disc length: 2102 seconds
#
# Revision: 1
# Processed by: cddbd v1.5.2PL0 Copyright (c) Steve Scherf et al.
# Submitted via: ExactAudioCopy v0.95a5
#
DISCID=9a08340c
DTITLE=Earl Brothers - Whiskey, Women and Death
DYEAR=2004
DGENRE=Bluegrass
TTITLE0=Been Sittin' Here Drinkin'
TTITLE1=Mountain Rumpus
TTITLE2=Cluck Ol' Hen
TTITLE3=Broken Motor
TTITLE4=Good Thing Gone Wrong
TTITLE5=Bender
TTITLE6=Hard Times Down the Road
TTITLE7=Hotel Hell
TTITLE8=Don't Drink From a Whiskey Bottle
TTITLE9=Whiskey Bound
TTITLE10=Bad Road of Regret
TTITLE11=I Won't Be Coming Home
EXTD=
EXTT0=
EXTT1=instrumental
EXTT2=
EXTT3=
EXTT4=
EXTT5=
EXTT6=
EXTT7=instrumental
EXTT8=
EXTT9=
EXTT10=
EXTT11=
PLAYORDER=
